<svg xmlns="http://www.w3.org/2000/svg" width="1460.178" height="236.917" viewBox="0 0 1460.178 236.917">
  <g id="Group_1" data-name="Group 1" transform="translate(-200.822 -282)">
    <g id="idea" transform="translate(200.822 282)">
      <g id="Group_1-2" data-name="Group 1">
        <g id="Group_2" data-name="Group 2" transform="translate(0)">
          <path id="Path_3" data-name="Path 3" d="M133,51.743a77.823,77.823,0,0,0-77.734,77.734A76.757,76.757,0,0,0,71.889,177.4c2.147,2.733,4.4,5.349,6.79,8.119l.131.152c7.305,8.476,14.858,17.242,17.679,27.565.638,2.364.728,6.9.691,10.4v5.938a9.84,9.84,0,0,0,9.84,9.84h51.526a9.84,9.84,0,0,0,9.84-9.84v-6.008a41.89,41.89,0,0,1,.68-9.621c2.836-10.255,11.207-20.1,18.659-28.866l.321-.378c2.151-2.527,4.183-4.913,6.033-7.266a76.754,76.754,0,0,0,16.646-47.955A77.822,77.822,0,0,0,133,51.743ZM178.615,165.26c-1.62,2.061-3.53,4.306-5.554,6.682l-.4.466c-8.705,10.239-18.571,21.845-22.571,36.3a44.268,44.268,0,0,0-1.354,11.022h-31.9a46.725,46.725,0,0,0-1.359-11.647c-4-14.647-13.851-26.076-21.766-35.262l-.133-.155c-2.237-2.594-4.349-5.045-6.227-7.433a57.272,57.272,0,0,1-12.414-35.758,58.05,58.05,0,1,1,116.1,0A57.269,57.269,0,0,1,178.615,165.26Z" transform="translate(-55.263 -51.743)" fill="#8debb4"/>
          <path id="Path_4" data-name="Path 4" d="M148.577,196.91H97.053a9.84,9.84,0,0,0,0,19.68h51.526a9.84,9.84,0,0,0,0-19.68Z" transform="translate(-44.296 -4.451)" fill="#8debb4"/>
          <path id="Path_5" data-name="Path 5" d="M132.632,214.018H106.871a9.84,9.84,0,1,0,0,19.68h25.762a9.84,9.84,0,1,0,0-19.68Z" transform="translate(-42.232 3.219)" fill="#8debb4"/>
          <g id="Ellipse_1" data-name="Ellipse 1" transform="translate(44.039 42.406)" fill="none" stroke="#8debb4" stroke-width="17">
            <circle cx="33.633" cy="33.633" r="33.633" stroke="none"/>
            <circle cx="33.633" cy="33.633" r="25.133" fill="none"/>
          </g>
        </g>
      </g>
    </g>
    <text id="tech-bulb.com" transform="translate(399 298)" fill="#333" font-size="165" font-family="Montserrat-Bold, Montserrat" font-weight="700"><tspan x="0" y="160">tech-bulb.com</tspan></text>
  </g>
</svg>
